<svg id="Layer_1" data-name="Layer 1" xmlns="http://www.w3.org/2000/svg" viewBox="0 0 220.26 216.94"><defs><style>.cls-1{fill:#c0dff5;}.cls-2{fill:#333;}</style></defs><polygon class="cls-1" points="115.84 42.86 69.57 131.75 86.55 160.88 115.84 160.88 145.14 160.88 162.12 131.75 115.84 42.86"/><path class="cls-2" d="M142,204.91H74.7V157.44H142ZM81.9,197.7h52.89V164.64H81.9Z"/><path class="cls-2" d="M135.6,164.64H81.09A3.62,3.62,0,0,1,78,162.85l-15.79-27.1a3.59,3.59,0,0,1-.08-3.48l43.05-82.7a3.6,3.6,0,0,1,6.39,0l43.05,82.7a3.62,3.62,0,0,1-.08,3.48l-15.8,27.1A3.6,3.6,0,0,1,135.6,164.64Zm-52.44-7.2h50.37l13.76-23.6L108.34,59,69.4,133.84Z"/><path class="cls-2" d="M108.34,108.18a3.6,3.6,0,0,1-3.6-3.6V55.13a3.6,3.6,0,1,1,7.2,0v49.45A3.6,3.6,0,0,1,108.34,108.18Z"/><path class="cls-2" d="M108.34,135.85a17.44,17.44,0,1,1,17.44-17.43A17.45,17.45,0,0,1,108.34,135.85Zm0-27.67a10.24,10.24,0,1,0,10.24,10.24A10.24,10.24,0,0,0,108.34,108.18Z"/><path class="cls-2" d="M45,122H26.28a3.61,3.61,0,0,1-3.6-3.6V99.71a3.6,3.6,0,0,1,3.6-3.6H45a3.6,3.6,0,0,1,3.6,3.6v18.71A3.6,3.6,0,0,1,45,122Zm-15.1-7.2h11.5V103.31H29.89Z"/><path class="cls-2" d="M192,122h-18.7a3.6,3.6,0,0,1-3.6-3.6V99.71a3.6,3.6,0,0,1,3.6-3.6H192a3.6,3.6,0,0,1,3.6,3.6v18.71A3.6,3.6,0,0,1,192,122Zm-15.1-7.2h11.5V103.31h-11.5Z"/><path class="cls-2" d="M179.9,94a3.6,3.6,0,0,1-3.58-3.3c-2.93-35-32.79-62.47-68-62.47s-65,27.44-68,62.47a3.6,3.6,0,0,1-7.18-.6c3.24-38.73,36.25-69.07,75.15-69.07s71.91,30.34,75.16,69.07A3.61,3.61,0,0,1,180.21,94Z"/></svg>