<svg id="Layer_1" data-name="Layer 1" xmlns="http://www.w3.org/2000/svg" viewBox="0 0 220.26 216.94"><defs><style>.cls-1{fill:#333;}</style></defs><path class="cls-1" d="M192.89,202.15H47.69a4,4,0,0,1-4-4V20.25a4,4,0,0,1,4-4h101.4a4,4,0,0,1,2.8,1.16l43.8,43.8a4,4,0,0,1,1.16,2.81V198.18A4,4,0,0,1,192.89,202.15ZM51.65,194.22H188.93V65.7L147.45,24.22H51.65Z"/><path class="cls-1" d="M192.89,68h-43.8a4,4,0,0,1-4-4V20.25a4,4,0,0,1,6.76-2.8l43.8,43.8a4,4,0,0,1-2.8,6.77Zm-39.84-7.93h30.28L153.05,29.82Z"/><path class="cls-1" d="M120.29,68H63.2a4,4,0,1,1,0-7.93h57.09a4,4,0,0,1,0,7.93Z"/><path class="cls-1" d="M166.82,106.7H63.2a4,4,0,1,1,0-7.92H166.82a4,4,0,1,1,0,7.92Z"/><path class="cls-1" d="M166.82,140.11H63.2a4,4,0,1,1,0-7.93H166.82a4,4,0,0,1,0,7.93Z"/></svg>