<svg id="Layer_1" data-name="Layer 1" xmlns="http://www.w3.org/2000/svg" viewBox="0 0 220.26 216.94"><defs><style>.cls-1{fill:#c0dff5;}.cls-2{fill:#333;}.cls-3{fill:#010101;}</style></defs><circle class="cls-1" cx="160.16" cy="73.03" r="48.54"/><path class="cls-2" d="M47,206.26a3.13,3.13,0,0,1-2.67-1.51L8.25,144.85a3.12,3.12,0,0,1,1.07-4.28L36.91,124A3.12,3.12,0,0,1,41.2,125L77.28,184.9a3.12,3.12,0,0,1-1.06,4.29l-27.6,16.62A3,3,0,0,1,47,206.26Zm-31.8-61.95,32.87,54.55,22.25-13.41L37.46,130.9Z"/><path class="cls-2" d="M140.36,158.62a12.47,12.47,0,0,1-5.14-1.14l-27.92-8.4a3.12,3.12,0,1,1,1.8-6l28.13,8.46a3.83,3.83,0,0,1,.43.17c3.83,1.8,7.27-.87,8.42-1.93,2-6.35-1-9.24-1.93-10L92.21,121.65c-.13,0-.25-.1-.37-.15-3.09-1.55-7-.26-7.72,0L47.85,142.24a3.12,3.12,0,1,1-3.09-5.41L81.22,116a3.13,3.13,0,0,1,.32-.15c.28-.12,6.89-2.9,12.9,0l52.18,18.26a2.88,2.88,0,0,1,.59.28c3.11,1.89,8.08,8.11,4.54,18.16a3,3,0,0,1-.62,1C150.91,153.82,146.52,158.62,140.36,158.62Z"/><path class="cls-2" d="M130.11,190.6a17.39,17.39,0,0,1-7.84-1.81L79.44,175.65a2.93,2.93,0,0,1-.65-.29,11.66,11.66,0,0,0-10.82.4,3.12,3.12,0,0,1-3-5.48,18,18,0,0,1,16.57-.51l42.81,13.13a4.55,4.55,0,0,1,.51.21c6.67,3.43,14.07-1.41,14.15-1.46l61.35-39.2c3-3.31.3-8.11-.41-9.24-3.06-2.66-8.82.63-8.88.66l-33,20.27a3.12,3.12,0,1,1-3.27-5.31l33-20.3c3.79-2.28,11.55-4.72,16.73.45a4.87,4.87,0,0,1,.35.42c2.46,3.53,5.57,11.76-.35,17.69a3.06,3.06,0,0,1-.53.42l-61.61,39.36A24.23,24.23,0,0,1,130.11,190.6Z"/><path class="cls-2" d="M146.8,114a49,49,0,1,1,49-49A49.08,49.08,0,0,1,146.8,114Zm0-91.81a42.79,42.79,0,1,0,42.78,42.78A42.84,42.84,0,0,0,146.8,22.16Z"/><path class="cls-2" d="M144.92,97.86a3.11,3.11,0,0,1-3.12-3.12V31.39a3.12,3.12,0,1,1,6.24,0V94.74A3.12,3.12,0,0,1,144.92,97.86Z"/><path class="cls-3" d="M132.05,74.45c1.67,6.39,6.19,10.23,14,10.23,8.75,0,12.3-4,12.3-9.54s-2.37-8.37-13.39-11c-12.69-3.05-15.84-6.89-15.84-13.38,0-6.79,5.12-13.09,16.24-13.09s16.43,6.79,17.22,13.78h-4.92c-.89-4.14-4.14-9.25-12.5-9.25-8.56,0-11,4.23-11,8.16,0,4.53,2.36,6.79,12.1,9.15,13.88,3.35,17.32,7.87,17.32,15.25,0,9-7.28,14.47-17.61,14.47-11.22,0-17.51-5.91-18.89-14.76Z"/></svg>