<svg id="Layer_1" data-name="Layer 1" xmlns="http://www.w3.org/2000/svg" viewBox="0 0 220.26 216.94"><defs><style>.cls-1{fill:none;}.cls-2{fill:#333;}.cls-3{fill:#c0dff5;}</style></defs><rect class="cls-1" x="69.8" y="172.36" width="61.64" height="18.74"/><path class="cls-2" d="M131.44,194.7H69.8a3.6,3.6,0,0,1-3.6-3.6V172.36a3.6,3.6,0,0,1,3.6-3.6h61.64a3.61,3.61,0,0,1,3.6,3.6V191.1A3.6,3.6,0,0,1,131.44,194.7Zm-58-7.2h54.43V176H73.4Z"/><path class="cls-2" d="M148.63,194.7H33.25a3.6,3.6,0,0,1,0-7.2H148.63a3.6,3.6,0,1,1,0,7.2Z"/><path class="cls-1" d="M23.41,150v2.86A15.57,15.57,0,0,0,39,168.43H149V150Z"/><path class="cls-1" d="M173.43,175.64h-17.2v17.7a5.29,5.29,0,0,0,5.29,5.29h41.06a5.3,5.3,0,0,0,5.3-5.29v-88a5.3,5.3,0,0,0-5.3-5.29h-6.4v52.79A22.78,22.78,0,0,1,173.43,175.64Z"/><path class="cls-1" d="M189,152.88v-6.32a12,12,0,0,1-8.4,3.46H156.23v18.41h17.2A15.57,15.57,0,0,0,189,152.88Z"/><path class="cls-3" d="M39,44.38H173.43a22.74,22.74,0,0,1,19.15,10.5V43.57a12,12,0,0,0-12-12H19.37a12,12,0,0,0-12,12V138a12,12,0,0,0,8.84,11.56V67.14A22.79,22.79,0,0,1,39,44.38Z"/><path class="cls-3" d="M149,105.38a12.5,12.5,0,0,1,12.49-12.49H189V67.14a15.57,15.57,0,0,0-15.55-15.55H39A15.57,15.57,0,0,0,23.41,67.14V150H149Z"/><path class="cls-2" d="M196.18,92.89V67.14a22.57,22.57,0,0,0-3.6-12.26v38Z"/><path class="cls-2" d="M39,168.43a15.57,15.57,0,0,1-15.56-15.55V150h-4a11.82,11.82,0,0,1-3.16-.44v3.3A22.79,22.79,0,0,0,39,175.64H149v-7.21Z"/><path class="cls-2" d="M23.41,150V67.14A15.57,15.57,0,0,1,39,51.59H173.43A15.57,15.57,0,0,1,189,67.14V92.89h3.6v-38a22.74,22.74,0,0,0-19.15-10.5H39A22.79,22.79,0,0,0,16.21,67.14v82.44a11.82,11.82,0,0,0,3.16.44Z"/><path class="cls-2" d="M202.58,92.89h-6.4v7.2h6.4a5.3,5.3,0,0,1,5.3,5.29v88a5.3,5.3,0,0,1-5.3,5.29H161.52a5.29,5.29,0,0,1-5.29-5.29v-17.7H149v17.7a12.51,12.51,0,0,0,12.49,12.5h41.06a12.52,12.52,0,0,0,12.5-12.5v-88A12.51,12.51,0,0,0,202.58,92.89Z"/><rect class="cls-2" x="149.03" y="150.02" width="7.2" height="18.42"/><path class="cls-2" d="M149,105.38V150h7.2V105.38a5.29,5.29,0,0,1,5.29-5.29H189v-7.2H161.52A12.5,12.5,0,0,0,149,105.38Z"/><rect class="cls-2" x="149.03" y="168.43" width="7.2" height="7.2"/><rect class="cls-2" x="192.58" y="92.89" width="3.6" height="7.2"/><rect class="cls-2" x="188.98" y="92.89" width="3.6" height="7.2"/><path class="cls-2" d="M149.37,151H23a3.6,3.6,0,0,1,0-7.2H149.37a3.6,3.6,0,1,1,0,7.2Z"/><path class="cls-2" d="M194.6,108H170.74a2.41,2.41,0,0,1,0-4.81H194.6a2.41,2.41,0,0,1,0,4.81Z"/></svg>